<?xml version="1.0" standalone="no"?>
<!DOCTYPE svg PUBLIC "-//W3C//DTD SVG 20010904//EN"
 "http://www.w3.org/TR/2001/REC-SVG-20010904/DTD/svg10.dtd">
<svg version="1.0" xmlns="http://www.w3.org/2000/svg"
 width="1000.000000pt" height="1000.000000pt" viewBox="0 0 1000.000000 1000.000000"
 preserveAspectRatio="xMidYMid meet">
<metadata>
Created by potrace 1.11, written by Peter Selinger 2001-2013
</metadata>
<g transform="translate(0.000000,1000.000000) scale(0.100000,-0.100000)"
fill="#000000" stroke="none">
<path d="M4482 9990 c-19 -4 -49 -7 -68 -6 -19 1 -35 -2 -36 -6 -2 -3 -34 -9
-73 -13 -96 -9 -130 -13 -130 -15 0 -3 -56 -11 -87 -13 -16 -1 -28 -6 -28 -10
0 -4 -6 -7 -12 -6 -7 2 -37 -3 -66 -9 -30 -7 -57 -10 -62 -7 -5 3 -10 1 -12
-5 -1 -5 -19 -12 -38 -14 -19 -3 -64 -13 -100 -21 -84 -21 -82 -21 -100 -27
-8 -3 -35 -11 -60 -18 -25 -7 -55 -16 -68 -21 -13 -5 -28 -7 -33 -4 -5 4 -9 2
-9 -4 0 -8 -14 -13 -75 -27 -5 -1 -27 -9 -47 -18 -21 -9 -38 -13 -38 -10 0 4
-6 2 -12 -3 -14 -11 -68 -27 -80 -25 -5 1 -8 -2 -8 -7 0 -8 -41 -24 -65 -25
-5 -1 -13 -5 -16 -9 -3 -5 -12 -9 -20 -11 -8 -1 -36 -12 -63 -24 -26 -12 -52
-19 -57 -16 -5 3 -9 1 -9 -5 0 -8 -31 -23 -50 -24 -3 0 -11 -7 -18 -14 -7 -7
-20 -13 -28 -13 -8 0 -26 -7 -39 -16 -14 -9 -25 -12 -25 -8 0 5 -4 4 -8 -3 -4
-6 -14 -13 -22 -15 -8 -2 -21 -9 -28 -16 -8 -7 -18 -10 -23 -7 -5 4 -9 2 -9
-3 0 -9 -84 -51 -85 -42 -1 3 -9 -3 -19 -12 -10 -10 -24 -18 -32 -18 -8 0 -14
-4 -14 -9 0 -5 -16 -15 -35 -21 -19 -6 -35 -15 -35 -20 0 -9 -30 -21 -42 -17
-4 1 -14 -7 -22 -18 -9 -11 -16 -15 -16 -10 0 7 -3 7 -8 0 -11 -16 -92 -66
-92 -58 0 5 -5 0 -11 -9 -5 -10 -15 -18 -20 -18 -6 0 -26 -12 -45 -26 -19 -15
-34 -22 -34 -18 0 5 -6 2 -13 -7 -7 -9 -31 -28 -54 -42 -23 -14 -44 -31 -48
-37 -3 -6 -11 -8 -16 -5 -5 4 -9 2 -9 -3 0 -8 -42 -39 -128 -97 -8 -5 -33 -27
-56 -47 -23 -21 -44 -38 -49 -38 -4 0 -16 -8 -26 -17 -32 -30 -86 -76 -130
-113 -24 -19 -64 -56 -89 -82 -26 -26 -50 -48 -53 -48 -9 0 -227 -218 -223
-223 2 -2 -20 -26 -49 -54 -28 -28 -59 -60 -67 -71 -22 -29 -102 -123 -122
-144 -10 -10 -18 -22 -18 -27 0 -5 -12 -19 -26 -30 -15 -12 -23 -21 -19 -21 5
0 -1 -8 -11 -18 -10 -9 -23 -24 -29 -33 -41 -66 -90 -129 -98 -129 -6 0 -7 -3
-4 -6 6 -6 -5 -22 -53 -81 -6 -7 -10 -15 -10 -18 0 -9 -74 -120 -82 -123 -5
-2 -8 -10 -8 -18 0 -8 -3 -14 -7 -14 -5 0 -13 -10 -19 -23 -30 -61 -59 -107
-66 -107 -5 0 -7 -4 -3 -9 3 -5 0 -15 -7 -23 -7 -7 -24 -35 -38 -61 -13 -26
-28 -47 -33 -47 -4 0 -5 -4 -2 -10 3 -5 1 -10 -4 -10 -6 0 -10 -3 -9 -7 4 -15
-13 -53 -23 -53 -6 0 -8 -4 -4 -9 3 -5 -2 -16 -10 -25 -9 -8 -16 -19 -17 -23
-4 -27 -11 -43 -19 -43 -5 0 -8 -3 -7 -7 4 -15 -14 -53 -24 -53 -6 0 -8 -3 -5
-7 4 -3 2 -12 -4 -20 -6 -7 -9 -13 -6 -13 4 0 -5 -21 -18 -46 -14 -26 -25 -50
-25 -55 0 -4 -10 -29 -22 -56 -12 -26 -22 -51 -22 -55 -1 -3 -4 -10 -8 -14 -5
-4 -8 -16 -8 -26 0 -10 -4 -18 -8 -18 -4 0 -8 -10 -9 -22 -1 -11 -7 -24 -13
-28 -7 -4 -11 -10 -10 -14 4 -15 -12 -66 -21 -66 -6 0 -7 -4 -4 -10 3 -5 -1
-23 -10 -40 -8 -16 -15 -32 -15 -35 0 -3 0 -6 -1 -7 0 -2 -2 -11 -4 -21 -2
-10 -7 -26 -11 -35 -9 -20 -8 -18 -18 -59 -4 -18 -12 -33 -17 -33 -6 0 -7 -5
-4 -10 4 -6 1 -27 -6 -48 -7 -20 -14 -41 -15 -47 -2 -5 -11 -41 -21 -80 -9
-38 -21 -72 -25 -73 -5 -2 -6 -7 -3 -12 7 -11 -27 -164 -37 -168 -4 -2 -6 -8
-3 -13 4 -5 1 -35 -5 -66 -22 -111 -25 -134 -35 -230 -4 -40 -12 -73 -16 -73
-5 0 -6 -6 -4 -12 3 -7 0 -53 -5 -103 -5 -49 -10 -116 -10 -147 -1 -32 -4 -58
-8 -58 -4 0 -6 -132 -4 -293 3 -286 4 -336 16 -447 4 -30 9 -82 13 -115 3 -33
7 -79 7 -102 1 -24 4 -43 8 -43 4 0 6 -12 4 -27 -1 -16 1 -32 5 -38 7 -11 22
-101 23 -147 1 -16 4 -28 8 -28 4 0 8 -10 8 -22 0 -25 7 -81 10 -85 2 -2 3 -6
4 -10 1 -5 5 -17 9 -28 3 -11 8 -32 11 -48 3 -15 7 -35 10 -45 9 -30 18 -76
20 -99 0 -13 5 -23 10 -23 4 0 6 -6 3 -14 -3 -8 -2 -16 4 -18 5 -2 10 -18 12
-36 1 -17 5 -32 10 -32 4 0 7 -8 7 -19 0 -10 7 -35 15 -55 9 -20 13 -41 10
-46 -4 -6 -1 -10 4 -10 6 0 10 -3 9 -7 -1 -5 4 -21 11 -37 6 -16 13 -36 15
-45 2 -9 6 -25 10 -36 5 -11 16 -42 26 -70 10 -27 22 -59 26 -70 4 -11 8 -22
8 -25 1 -3 8 -16 15 -28 7 -13 10 -26 7 -29 -3 -3 2 -12 10 -20 8 -9 13 -22
10 -29 -3 -8 -1 -14 4 -14 9 0 36 -69 32 -82 -1 -5 2 -8 6 -8 12 0 34 -49 27
-60 -3 -5 -1 -10 3 -12 5 -1 33 -52 62 -113 30 -60 67 -131 82 -158 15 -26 25
-47 22 -47 -2 0 4 -10 15 -22 11 -11 18 -25 15 -30 -3 -4 -1 -8 3 -8 8 0 16
-13 47 -75 8 -16 28 -49 45 -72 17 -24 28 -43 24 -43 -5 0 -3 -4 3 -8 6 -4 29
-36 52 -72 56 -87 63 -98 89 -128 13 -15 23 -31 23 -35 0 -5 6 -15 13 -22 26
-30 37 -44 37 -50 0 -3 8 -14 18 -24 26 -30 38 -45 41 -56 2 -5 12 -16 22 -23
11 -7 19 -17 19 -22 0 -5 10 -20 23 -33 12 -13 42 -48 67 -77 25 -29 51 -59
58 -66 6 -7 12 -15 12 -17 0 -10 297 -312 376 -382 31 -27 74 -67 96 -87 22
-21 43 -38 47 -38 4 0 13 -8 22 -17 8 -10 30 -29 48 -43 19 -14 45 -35 58 -47
13 -13 28 -23 33 -23 5 0 13 -6 17 -13 4 -7 24 -24 43 -37 19 -13 41 -30 48
-37 8 -8 27 -20 43 -28 16 -9 29 -20 29 -25 0 -6 6 -10 13 -10 7 0 23 -9 35
-20 12 -11 24 -20 27 -20 10 0 100 -63 103 -72 2 -4 8 -8 14 -8 6 0 37 -18 69
-40 32 -22 63 -40 68 -40 5 0 16 -6 23 -13 7 -6 39 -25 71 -42 31 -16 57 -34
57 -39 0 -5 3 -7 6 -3 3 3 24 -5 45 -19 21 -13 43 -24 49 -24 5 0 10 -5 10
-10 0 -6 3 -9 8 -8 13 5 72 -24 72 -35 0 -6 3 -8 6 -4 4 3 25 -4 48 -16 22
-13 67 -34 99 -46 31 -13 57 -28 57 -33 0 -5 4 -7 8 -4 5 3 20 -1 35 -9 14 -7
66 -28 114 -45 48 -18 93 -36 98 -40 6 -4 38 -15 73 -25 34 -11 62 -23 62 -27
0 -5 5 -6 10 -3 6 4 17 1 25 -5 8 -7 15 -10 15 -7 0 3 36 -7 79 -23 44 -15 82
-26 85 -22 3 3 6 0 6 -6 0 -6 6 -9 14 -6 8 3 17 0 21 -5 3 -6 10 -9 15 -6 5 3
21 0 37 -6 29 -11 214 -56 268 -65 17 -3 37 -7 45 -10 8 -3 35 -8 60 -11 25
-3 50 -9 56 -14 6 -5 13 -7 16 -4 2 2 31 0 64 -6 32 -6 86 -13 119 -16 33 -3
62 -8 65 -12 3 -3 21 -6 40 -7 19 0 73 -4 120 -8 47 -5 100 -8 118 -7 19 1 38
-2 44 -5 12 -8 583 -8 595 -1 5 3 31 6 58 6 49 0 112 5 197 16 23 4 61 8 83
11 22 2 58 6 80 10 22 3 54 7 70 8 17 2 37 6 45 9 8 3 22 6 30 6 8 0 29 3 45
7 17 3 45 7 63 8 17 0 32 4 32 9 0 4 11 7 24 7 14 0 35 4 49 9 13 5 39 12 58
15 19 3 48 10 66 15 17 5 34 7 37 4 3 -3 11 -1 19 5 7 6 26 13 42 16 17 2 32
5 35 7 3 1 10 3 15 4 6 1 23 7 38 13 16 7 34 12 41 12 8 0 30 7 50 15 20 8 36
12 36 9 0 -4 7 -1 15 6 8 7 15 9 15 5 0 -4 7 -2 15 5 8 6 18 9 24 6 5 -3 11
-2 13 4 1 5 14 11 28 14 14 2 26 5 28 7 1 1 5 2 10 4 4 1 20 7 35 13 16 7 34
12 41 12 6 0 16 4 21 8 11 9 117 52 137 56 16 3 102 41 150 67 21 11 40 20 43
19 3 0 19 7 35 15 17 9 30 12 30 8 0 -5 4 -3 8 4 4 6 14 13 22 15 8 2 21 9 28
16 8 7 18 10 23 7 5 -4 9 -2 9 3 0 9 53 36 65 33 3 -1 13 5 21 14 9 8 20 13
25 10 5 -4 9 -1 9 4 0 6 5 11 11 11 6 0 23 9 39 20 15 11 30 17 34 13 3 -3 6
-2 6 4 0 11 96 70 121 75 7 2 21 11 31 21 10 10 29 22 41 27 25 11 60 32 67
41 10 13 95 63 103 61 4 -1 7 2 7 7 0 9 107 83 115 79 2 -2 12 7 20 20 9 12
22 22 29 22 8 0 17 7 20 16 3 8 10 13 15 10 5 -3 16 6 25 19 9 14 21 23 26 20
6 -4 10 -2 10 4 0 5 23 26 50 46 28 21 63 49 78 64 15 14 47 42 70 61 78 63
316 295 402 390 85 95 115 130 150 172 19 23 47 54 61 70 15 15 24 29 21 32
-3 3 3 8 12 12 9 3 16 12 16 20 0 8 9 19 20 26 11 7 20 16 20 21 0 8 11 23 43
58 9 10 17 24 17 29 0 6 7 13 15 16 8 4 13 10 10 14 -3 5 4 15 15 23 11 7 18
16 15 19 -3 3 5 16 17 29 13 14 24 29 25 34 2 6 10 18 18 28 8 9 15 21 15 26
0 4 11 20 24 34 13 14 22 28 20 30 -3 2 2 10 11 17 8 7 15 18 15 25 0 7 12 24
26 39 15 14 24 26 20 26 -4 0 3 18 15 40 13 22 27 40 33 40 5 0 6 3 3 7 -6 5
27 70 43 83 3 3 14 24 24 48 11 23 23 42 28 42 4 0 7 3 6 8 -4 13 13 52 23 52
5 0 8 3 7 8 -4 13 13 52 23 52 5 0 8 3 7 8 -2 9 9 35 56 133 20 42 36 81 36
87 0 7 5 12 10 12 6 0 9 3 8 8 -1 4 4 23 11 42 8 19 15 42 17 50 2 8 7 16 13
18 5 2 7 10 4 18 -3 8 0 14 6 14 6 0 10 3 9 8 -4 10 35 122 42 122 3 0 7 12 8
26 1 15 6 32 11 38 5 6 9 13 9 16 0 10 24 95 30 105 4 6 8 19 9 30 2 10 7 22
11 25 4 3 8 14 9 25 6 49 16 85 25 85 5 0 7 4 4 9 -3 4 -1 23 5 42 6 19 12 45
15 58 3 13 12 51 20 85 26 105 34 146 39 188 3 18 7 44 10 58 13 60 16 80 27
173 7 53 15 97 18 97 4 0 5 12 4 28 -1 15 2 61 7 102 5 41 9 98 10 125 0 28 3
57 6 65 6 17 5 536 -1 625 -2 33 -6 80 -10 105 -3 25 -8 74 -11 110 -3 36 -7
79 -10 95 -2 17 -7 50 -10 75 -9 74 -11 83 -35 209 -5 30 -8 56 -5 59 3 3 0
11 -6 18 -6 8 -9 20 -6 29 4 8 1 17 -4 21 -6 3 -9 15 -6 25 3 11 2 19 -2 19
-8 0 -42 145 -45 188 0 12 -5 22 -10 22 -4 0 -6 7 -2 15 3 8 2 15 -2 15 -5 0
-14 24 -21 53 -7 28 -27 92 -43 142 -17 49 -31 94 -33 100 -1 5 -5 19 -9 30
-5 11 -12 34 -18 50 -5 17 -14 39 -18 50 -7 18 -21 53 -25 65 -1 3 -9 22 -18
42 -10 21 -17 42 -17 47 0 5 -6 22 -14 38 -8 15 -27 55 -41 88 -15 33 -58 122
-95 198 -38 75 -66 137 -62 137 4 0 -1 5 -11 11 -9 6 -15 14 -12 20 4 5 2 9
-3 9 -5 0 -12 8 -16 18 -6 19 -33 65 -58 101 -9 13 -15 28 -12 33 3 4 1 8 -3
8 -9 0 -41 48 -42 63 0 4 -10 17 -21 29 -11 12 -20 28 -20 35 0 7 -4 13 -8 13
-7 0 -39 47 -41 62 -1 4 -12 18 -24 32 -13 13 -29 37 -37 52 -8 15 -25 39 -38
53 -12 13 -20 26 -17 29 3 3 -4 11 -15 19 -11 8 -20 21 -20 29 0 8 -4 14 -8
14 -5 0 -22 19 -39 43 -17 23 -45 58 -62 77 -17 19 -31 39 -31 43 0 4 -12 20
-27 35 -39 39 -93 101 -93 106 0 10 -300 314 -381 386 -34 30 -74 66 -89 80
-15 14 -47 41 -71 60 -24 19 -54 45 -67 58 -13 12 -25 22 -28 22 -5 0 -14 7
-56 42 -59 51 -69 58 -78 58 -5 0 -15 9 -23 20 -8 11 -16 18 -19 15 -3 -3 -17
6 -31 19 -14 13 -28 21 -31 19 -3 -3 -8 2 -12 11 -3 9 -12 16 -20 16 -8 0 -14
5 -14 10 0 6 -6 10 -13 10 -7 0 -23 9 -35 20 -12 11 -25 20 -30 20 -4 0 -17 8
-28 18 -11 9 -36 25 -55 35 -20 10 -47 28 -60 40 -14 12 -31 23 -39 25 -8 2
-18 9 -22 15 -4 7 -8 8 -8 3 0 -5 -8 -3 -17 6 -10 8 -30 19 -45 26 -16 6 -28
16 -28 22 0 6 -4 9 -9 5 -5 -3 -16 2 -24 10 -9 8 -20 15 -26 15 -6 0 -11 5
-11 11 0 5 -4 8 -9 4 -5 -3 -17 2 -25 11 -9 8 -16 13 -16 10 0 -2 -56 24 -125
59 -69 35 -125 62 -125 60 0 -2 -27 9 -59 26 -33 16 -65 29 -70 29 -6 0 -11 5
-11 11 0 5 -4 8 -10 4 -9 -5 -17 -3 -67 23 -13 7 -27 12 -32 12 -5 0 -31 10
-58 22 -26 12 -51 22 -55 23 -5 2 -11 4 -15 5 -5 1 -11 2 -15 1 -5 0 -8 4 -8
10 0 5 -4 8 -8 5 -5 -3 -49 9 -98 25 -122 42 -119 40 -121 40 -2 0 -17 5 -35
10 -93 29 -249 69 -270 69 -10 0 -18 4 -18 10 0 5 -7 7 -15 4 -8 -3 -20 -2
-27 2 -7 4 -28 9 -47 11 -20 2 -38 7 -41 11 -3 4 -27 8 -54 10 -28 1 -55 7
-61 12 -7 6 -14 8 -17 5 -2 -2 -31 0 -64 5 -32 6 -77 13 -99 16 -22 2 -60 7
-85 11 -25 3 -53 5 -62 4 -10 -1 -18 2 -18 7 0 12 -1010 13 -1058 2z m688
-493 c63 0 118 -1 122 -4 4 -2 43 -6 85 -8 43 -2 96 -7 118 -10 43 -6 99 -13
155 -19 75 -7 190 -30 190 -38 0 -4 6 -5 13 -2 8 3 34 0 58 -6 24 -6 58 -13
74 -16 17 -3 43 -9 59 -14 16 -6 40 -10 52 -10 13 0 24 -3 24 -7 0 -5 14 -9
32 -10 17 -1 34 -6 37 -10 3 -5 19 -9 36 -11 16 -2 32 -7 35 -10 3 -4 19 -8
35 -10 17 -2 31 -7 33 -12 2 -5 10 -6 18 -3 8 3 14 0 14 -7 0 -6 4 -9 8 -6 12
7 82 -15 82 -26 0 -5 4 -7 8 -4 4 2 26 -4 49 -14 23 -10 44 -16 47 -12 3 3 6
0 6 -7 0 -7 4 -10 9 -7 5 3 31 -4 57 -16 27 -12 55 -23 63 -24 8 -2 18 -8 22
-16 4 -7 11 -9 15 -6 3 4 25 -3 48 -14 22 -12 43 -22 46 -23 19 -3 90 -40 90
-48 0 -4 4 -6 9 -2 12 7 101 -35 101 -48 0 -4 4 -6 9 -2 5 3 12 1 16 -5 3 -5
39 -25 80 -45 41 -19 75 -40 75 -47 0 -6 3 -8 6 -5 8 7 104 -44 104 -55 0 -5
6 -8 13 -8 11 0 112 -63 144 -90 7 -5 17 -10 23 -10 5 0 10 -4 10 -10 0 -5 6
-10 14 -10 8 0 21 -9 29 -20 8 -11 16 -18 19 -15 3 3 17 -6 32 -20 15 -14 30
-25 35 -25 4 0 16 -8 27 -18 10 -10 40 -33 67 -51 26 -19 47 -38 47 -42 0 -4
8 -10 18 -13 9 -4 33 -20 52 -37 19 -17 57 -49 84 -72 28 -23 80 -71 117 -107
37 -36 87 -83 112 -105 26 -21 45 -41 43 -43 -2 -1 31 -37 72 -78 42 -40 74
-74 71 -74 -4 0 12 -20 35 -43 55 -59 119 -135 130 -155 5 -9 15 -21 23 -25 7
-4 13 -12 13 -17 0 -5 10 -20 23 -33 12 -13 29 -34 37 -46 8 -13 29 -42 47
-64 18 -23 30 -43 28 -46 -3 -2 4 -11 14 -20 23 -20 74 -101 64 -101 -5 0 0
-5 10 -11 9 -5 17 -17 17 -24 0 -8 4 -15 8 -15 5 0 17 -17 28 -37 10 -21 21
-40 24 -43 9 -9 30 -45 52 -90 12 -25 28 -51 35 -58 7 -8 11 -18 8 -23 -4 -5
-2 -9 3 -9 5 0 15 -15 23 -32 7 -18 16 -35 20 -38 3 -3 27 -48 51 -100 66
-139 77 -163 80 -180 2 -8 7 -18 11 -21 5 -3 10 -12 11 -20 3 -14 10 -32 41
-104 9 -22 18 -44 19 -50 2 -5 8 -23 14 -38 7 -15 15 -40 18 -55 4 -15 11 -32
15 -38 5 -6 10 -19 12 -30 2 -10 10 -32 16 -49 7 -16 14 -39 15 -50 1 -12 6
-26 10 -33 4 -7 5 -16 2 -21 -4 -5 -2 -11 3 -13 6 -1 11 -14 13 -28 2 -14 7
-31 12 -38 4 -7 5 -16 2 -19 -3 -3 -1 -12 6 -20 6 -7 8 -16 5 -20 -4 -3 -2
-11 3 -18 5 -7 12 -25 14 -41 2 -16 6 -36 9 -44 3 -8 5 -22 5 -30 0 -8 3 -26
7 -40 4 -14 8 -34 10 -45 2 -11 4 -20 5 -20 2 0 3 -11 4 -25 1 -14 5 -30 8
-36 4 -6 5 -23 2 -38 -3 -18 -1 -25 6 -21 6 3 11 -4 11 -17 1 -13 3 -32 5 -43
2 -11 6 -38 9 -60 2 -22 9 -69 14 -105 6 -36 10 -74 10 -85 0 -11 3 -42 6 -70
3 -27 7 -118 9 -202 2 -83 7 -161 11 -172 3 -12 4 -25 0 -30 -3 -6 -8 -98 -10
-207 -2 -112 -9 -201 -15 -209 -5 -6 -7 -15 -4 -18 3 -3 0 -45 -6 -94 -7 -48
-12 -98 -11 -110 0 -13 -3 -23 -7 -23 -4 0 -7 -15 -8 -32 0 -18 -6 -62 -13
-98 -6 -36 -13 -74 -15 -85 -10 -61 -19 -95 -26 -95 -4 0 -5 -11 -2 -25 2 -15
0 -25 -7 -25 -7 0 -9 -4 -6 -10 3 -5 -1 -35 -10 -67 -9 -32 -17 -64 -17 -70
-1 -7 -4 -13 -7 -13 -3 0 -7 -11 -7 -25 -1 -14 -5 -33 -9 -43 -5 -9 -9 -22
-11 -29 -3 -16 -24 -84 -31 -103 -4 -8 -7 -17 -8 -20 -7 -30 -30 -88 -38 -97
-5 -7 -7 -13 -3 -13 9 0 -35 -114 -48 -122 -6 -4 -7 -8 -3 -8 5 0 5 -6 0 -12
-4 -7 -8 -20 -10 -28 -1 -8 -6 -16 -12 -18 -5 -2 -7 -10 -4 -18 3 -8 0 -14 -6
-14 -6 0 -10 -3 -9 -7 3 -16 -15 -63 -24 -63 -5 0 -7 -4 -4 -8 3 -5 -4 -23
-15 -40 -10 -18 -19 -39 -19 -47 0 -8 -5 -15 -10 -15 -6 0 -9 -3 -8 -7 3 -14
-34 -93 -43 -93 -5 0 -8 -3 -8 -7 3 -18 -2 -30 -19 -49 -10 -10 -19 -23 -20
-29 -6 -26 -37 -85 -44 -85 -4 0 -8 -7 -8 -15 0 -8 -5 -15 -11 -15 -5 0 -8 -4
-5 -9 3 -5 -3 -20 -14 -34 -11 -14 -20 -30 -20 -36 0 -6 -4 -11 -9 -11 -5 0
-11 -10 -15 -23 -3 -12 -14 -32 -26 -44 -11 -12 -20 -27 -20 -33 0 -5 -4 -10
-10 -10 -5 0 -10 -7 -10 -15 0 -8 -9 -24 -19 -34 -11 -11 -17 -21 -15 -24 2
-2 -10 -19 -28 -38 -18 -19 -31 -35 -29 -37 6 -6 -82 -122 -92 -122 -6 0 -8
-3 -4 -6 5 -6 -11 -29 -48 -68 -12 -11 -22 -25 -24 -31 -3 -12 -72 -95 -118
-143 -18 -19 -33 -36 -33 -39 0 -3 -33 -38 -72 -79 -40 -40 -86 -89 -102 -109
-15 -19 -32 -35 -37 -35 -4 0 -43 -35 -86 -78 -43 -42 -100 -95 -127 -117 -54
-44 -93 -78 -117 -100 -9 -8 -21 -15 -27 -15 -7 0 -12 -5 -12 -10 0 -6 -7 -13
-15 -16 -8 -3 -31 -21 -52 -40 -20 -18 -39 -32 -41 -29 -2 2 -16 -7 -31 -21
-14 -14 -42 -35 -61 -47 -19 -12 -43 -29 -53 -38 -10 -9 -35 -25 -55 -35 -20
-11 -39 -21 -42 -24 -20 -21 -163 -105 -172 -102 -5 1 -8 -3 -8 -9 0 -5 -4 -7
-10 -4 -5 3 -10 2 -10 -3 0 -12 -76 -53 -84 -45 -3 3 -6 2 -6 -4 0 -14 -328
-176 -357 -176 -7 0 -13 -4 -13 -9 0 -5 -4 -6 -10 -3 -5 3 -10 2 -10 -3 0 -9
-40 -25 -65 -26 -5 -1 -16 -7 -24 -14 -7 -7 -19 -11 -27 -8 -7 3 -14 0 -16 -5
-2 -6 -10 -11 -18 -12 -8 -2 -21 -6 -27 -10 -7 -5 -17 -5 -23 -2 -5 3 -10 2
-10 -4 0 -5 -14 -12 -30 -16 -17 -4 -44 -14 -61 -22 -17 -8 -41 -16 -55 -17
-13 0 -24 -4 -24 -8 0 -3 -15 -9 -32 -13 -18 -3 -44 -10 -58 -16 -14 -5 -36
-11 -50 -13 -14 -3 -25 -5 -25 -6 0 -2 -30 -9 -55 -14 -8 -2 -22 -6 -30 -10
-9 -4 -29 -8 -45 -9 -17 -1 -32 -5 -35 -9 -3 -4 -21 -9 -41 -11 -19 -2 -39 -6
-44 -9 -6 -3 -28 -9 -49 -12 -21 -4 -48 -8 -60 -11 -12 -2 -37 -7 -56 -9 -19
-3 -59 -10 -88 -16 -29 -5 -56 -9 -60 -8 -4 1 -23 -2 -42 -5 -52 -10 -136 -18
-217 -22 -40 -2 -76 -6 -80 -8 -5 -3 -64 -5 -133 -6 -69 -1 -138 -2 -155 -3
-69 -2 -417 12 -425 17 -5 3 -44 8 -87 11 -43 3 -80 9 -83 12 -3 4 -25 8 -50
9 -78 3 -90 5 -96 14 -3 5 -9 7 -14 4 -11 -7 -222 34 -236 46 -6 5 -14 6 -17
3 -3 -4 -14 -3 -24 1 -10 4 -29 9 -42 11 -13 2 -31 6 -40 10 -9 4 -28 8 -42
10 -15 2 -39 9 -55 15 -16 7 -33 13 -39 14 -5 1 -12 3 -15 4 -3 1 -16 4 -30 7
-14 2 -32 7 -40 11 -8 3 -17 7 -20 7 -40 9 -100 30 -100 35 0 4 -10 7 -22 8
-11 1 -24 6 -27 10 -3 4 -17 9 -31 11 -14 1 -27 7 -28 12 -2 6 -7 8 -11 5 -8
-4 -155 53 -193 75 -10 6 -25 10 -33 10 -8 0 -15 5 -15 12 0 6 -3 9 -6 5 -4
-3 -25 3 -48 15 -22 11 -42 20 -44 19 -2 -2 -171 86 -247 129 -22 12 -43 27
-46 32 -3 5 -9 9 -13 8 -11 -2 -96 43 -96 52 0 4 -7 8 -15 8 -8 0 -15 5 -15
10 0 6 -3 9 -8 8 -10 -4 -112 63 -112 74 0 4 -3 7 -8 7 -17 -3 -29 2 -48 18
-17 16 -42 34 -129 93 -41 28 -99 75 -130 104 -16 16 -32 28 -33 27 -4 -3 -38
25 -141 114 -19 17 -70 65 -113 107 -43 42 -78 74 -78 70 0 -7 -50 44 -51 52
0 3 -37 41 -82 85 -44 45 -78 81 -74 81 4 0 -8 15 -28 32 -19 18 -35 37 -35
41 0 5 -13 20 -30 34 -16 13 -30 31 -30 39 0 8 -4 14 -8 14 -5 0 -23 20 -41
45 -18 25 -46 60 -62 78 -16 17 -29 37 -29 44 0 7 -3 13 -7 13 -9 0 -57 67
-51 72 1 2 -12 18 -30 37 -17 19 -32 40 -32 47 0 8 -3 14 -8 14 -4 0 -18 21
-32 47 -13 27 -30 52 -37 56 -8 5 -11 12 -8 18 4 5 2 9 -2 9 -5 0 -17 13 -26
30 -10 16 -15 30 -12 30 3 0 -3 10 -15 22 -11 12 -20 27 -20 34 0 6 -7 17 -15
24 -8 7 -12 16 -9 21 3 5 1 9 -5 9 -9 0 -21 26 -20 44 0 5 -4 12 -10 15 -15
10 -131 243 -125 253 3 4 1 8 -5 8 -6 0 -14 12 -17 27 -4 16 -11 34 -17 41 -5
6 -6 12 -3 12 4 0 0 7 -9 16 -9 9 -14 22 -11 30 3 7 2 14 -2 16 -12 5 -43 79
-37 89 4 5 2 9 -3 9 -12 0 -44 89 -37 100 3 5 1 10 -4 12 -5 1 -11 12 -13 23
-1 11 -7 23 -11 26 -5 4 -10 18 -10 33 -1 14 -5 26 -10 26 -4 0 -6 3 -5 8 1 4
-4 20 -10 35 -7 16 -12 35 -12 43 0 9 -4 23 -9 33 -6 10 -12 28 -14 42 -2 13
-7 32 -12 41 -4 10 -8 29 -9 43 0 14 -4 25 -7 25 -4 0 -9 19 -13 43 -9 52 -13
76 -20 102 -20 76 -26 110 -22 122 3 7 1 13 -4 13 -5 0 -8 8 -8 17 1 19 -11
82 -16 92 -5 8 -18 115 -22 171 -1 25 -3 45 -4 45 -10 0 -24 212 -24 355 -1
78 -5 138 -11 142 -7 5 -6 13 1 25 6 10 10 74 9 151 0 72 2 132 6 132 3 0 5
27 4 60 -1 33 1 63 5 65 4 2 6 25 5 50 -2 25 0 45 4 45 5 0 8 26 11 128 0 17
5 32 10 32 5 0 7 6 4 14 -3 8 2 48 10 90 9 42 19 95 21 119 3 23 10 43 15 45
5 2 7 9 4 15 -3 10 43 203 72 302 3 11 8 32 11 48 3 15 10 27 15 27 5 0 7 4 4
9 -5 8 15 74 45 146 7 17 13 36 15 43 1 8 6 21 10 30 9 20 9 20 18 55 5 15 12
27 17 27 5 0 8 3 7 8 -3 15 15 62 24 62 5 0 6 4 3 10 -3 5 1 22 9 37 23 44 73
156 81 181 3 12 11 22 16 22 6 0 7 5 4 10 -3 6 -1 10 4 10 6 0 10 3 10 8 -3
17 2 31 14 44 6 7 27 45 46 83 19 39 37 72 40 75 3 3 19 31 36 63 16 31 33 57
37 57 4 0 8 7 8 15 0 8 9 24 19 34 11 11 17 21 15 24 -2 2 7 16 21 31 13 14
24 29 24 32 -2 12 63 104 73 104 6 0 9 3 5 6 -6 6 41 76 56 82 4 2 7 10 7 18
0 8 4 14 9 14 5 0 12 8 15 18 3 9 26 40 52 67 25 28 45 51 44 53 -2 5 71 92
117 139 23 24 39 43 36 43 -4 0 24 31 63 70 38 38 82 86 98 105 16 19 31 33
33 31 2 -2 39 31 81 73 43 42 99 94 126 116 26 22 57 49 70 60 13 11 38 31 56
45 17 14 48 40 68 57 21 18 42 33 48 33 7 0 15 7 18 16 3 8 10 13 15 10 5 -3
12 1 15 10 3 8 10 12 16 9 5 -3 10 -1 10 4 0 6 19 23 42 37 24 15 45 31 46 36
2 4 8 6 13 2 5 -3 9 -1 9 5 0 11 60 47 73 43 4 -1 7 2 7 7 0 10 86 65 94 60 3
-2 12 5 20 16 9 11 16 16 16 10 0 -6 3 -6 8 1 12 17 79 54 85 47 4 -3 7 -2 7
4 0 12 100 67 100 56 0 -5 4 -3 8 4 4 6 14 13 22 15 8 2 19 8 25 15 5 7 17 13
25 15 8 2 21 9 28 16 8 7 18 10 23 7 5 -4 9 -2 9 3 0 12 56 33 64 25 3 -4 6
-2 6 4 0 9 48 35 73 39 4 1 10 3 15 4 4 1 10 2 15 1 4 0 7 3 7 7 0 9 70 38 82
34 4 -1 8 2 8 7 0 8 41 24 65 25 6 1 13 5 16 9 3 5 12 10 20 11 8 2 23 6 34
10 11 5 43 16 70 26 28 10 69 25 93 34 24 9 48 14 53 11 5 -4 9 -2 9 3 0 9 36
19 85 25 11 1 22 5 25 9 3 4 18 9 33 12 16 3 43 10 60 15 18 6 43 12 57 15 29
6 64 14 100 22 14 4 35 7 48 8 12 0 22 5 22 9 0 5 8 7 18 6 9 -2 26 0 37 4 11
3 42 8 68 11 27 3 52 8 55 10 4 2 32 7 62 10 30 4 66 9 80 12 24 4 73 9 220
22 36 3 127 6 202 6 76 1 138 5 138 9 0 4 17 5 38 1 20 -4 89 -7 152 -7z"/>
<path d="M5029 9027 c-8 -11 -28 -36 -46 -54 -18 -18 -29 -33 -26 -33 4 0 -2
-8 -13 -19 -10 -10 -37 -40 -59 -67 -22 -26 -55 -63 -72 -82 -18 -19 -33 -37
-33 -40 0 -4 -9 -15 -20 -27 -11 -11 -36 -40 -57 -65 -21 -24 -52 -59 -69 -77
-18 -18 -29 -33 -26 -33 3 0 -3 -8 -14 -19 -10 -10 -35 -38 -54 -61 -36 -46
-80 -96 -116 -135 -12 -13 -42 -49 -67 -82 -25 -32 -55 -65 -67 -73 -11 -8
-20 -18 -20 -22 0 -5 -13 -23 -29 -41 -16 -17 -38 -42 -48 -54 l-19 -21 -34
29 c-19 16 -53 44 -74 62 -22 17 -50 42 -63 55 -13 12 -26 22 -29 22 -6 0 -86
61 -94 71 -9 12 -80 28 -80 18 0 -5 -7 -12 -15 -15 -8 -3 -31 -21 -52 -40 -20
-18 -38 -32 -41 -30 -2 3 -16 -7 -32 -22 -15 -15 -39 -36 -54 -47 -15 -11 -35
-28 -44 -37 -9 -10 -21 -18 -27 -18 -6 0 -16 -9 -23 -20 -7 -11 -18 -20 -25
-20 -7 0 -18 -9 -25 -20 -7 -11 -16 -20 -22 -20 -5 0 -20 -10 -34 -22 -43 -41
-109 -93 -113 -90 -2 1 -14 -9 -27 -23 -13 -14 -26 -25 -29 -25 -3 0 -23 -16
-45 -36 -22 -20 -44 -37 -48 -37 -5 -1 -18 -11 -30 -22 -12 -11 -32 -30 -46
-42 l-24 -21 -35 21 c-19 12 -36 24 -39 27 -3 3 -30 18 -60 33 -30 16 -60 35
-67 44 -6 8 -15 14 -20 13 -14 -2 -83 41 -83 51 0 6 -4 8 -10 4 -5 -3 -18 2
-28 12 -10 10 -23 19 -29 20 -10 2 -135 74 -143 83 -3 3 -22 14 -42 24 -21 11
-38 23 -38 28 0 5 -4 7 -8 4 -5 -3 -19 4 -30 15 -12 11 -22 17 -22 14 0 -5
-49 23 -60 35 -3 3 -15 11 -27 18 -13 6 -33 18 -45 25 -13 6 -25 14 -28 17 -3
3 -31 19 -63 35 -38 20 -55 35 -52 44 4 11 3 12 -10 1 -8 -7 -21 -10 -29 -7
-9 4 -17 -2 -21 -13 -3 -10 -14 -22 -24 -25 -18 -5 -240 -225 -317 -314 -22
-24 -51 -57 -66 -73 -16 -16 -28 -33 -28 -38 0 -5 -6 -13 -13 -17 -6 -4 -25
-26 -42 -48 -16 -22 -34 -45 -40 -51 -5 -6 -17 -22 -25 -34 -8 -12 -20 -28
-25 -34 -6 -6 -32 -44 -59 -83 -27 -40 -52 -73 -57 -73 -5 0 -8 -4 -6 -8 2 -9
-60 -115 -83 -142 -8 -9 -16 -23 -18 -31 -2 -8 -10 -21 -18 -30 -8 -8 -14 -21
-14 -27 0 -7 -4 -12 -10 -12 -5 0 -10 -6 -10 -14 0 -8 -7 -22 -16 -30 -8 -9
-13 -16 -9 -16 3 0 -1 -13 -10 -30 -9 -16 -20 -30 -25 -30 -6 0 -10 -3 -9 -7
2 -17 -14 -53 -24 -53 -6 0 -8 -3 -4 -6 3 -4 -9 -36 -27 -73 -19 -36 -37 -76
-41 -88 -3 -13 -11 -23 -16 -23 -5 0 -8 -3 -6 -8 4 -12 -36 -102 -46 -102 -4
0 -6 -4 -2 -9 5 -9 -13 -59 -25 -71 -3 -3 -6 -13 -8 -22 -1 -10 -9 -33 -17
-53 -9 -19 -16 -38 -16 -42 -1 -7 -13 -42 -35 -98 -4 -11 -8 -23 -9 -27 -2 -5
-3 -9 -5 -10 -2 -4 -7 -24 -15 -62 -3 -16 -11 -39 -18 -50 -6 -12 -10 -25 -9
-30 2 -5 0 -16 -4 -25 -10 -24 -12 -51 -3 -56 7 -5 285 -15 429 -16 41 -1 79
-3 84 -6 4 -3 331 -7 725 -8 850 -3 1626 -8 4426 -28 380 -2 1004 -6 1388 -7
442 -2 697 -6 697 -12 0 -6 8 -7 18 -3 9 4 148 9 307 11 160 2 295 3 300 4 15
0 10 90 -9 134 -9 21 -18 48 -20 60 -3 11 -17 57 -32 101 -14 44 -27 85 -29
90 -3 14 -15 47 -26 70 -5 11 -11 29 -13 40 -3 11 -14 39 -26 63 -11 23 -18
47 -15 52 3 6 2 10 -3 10 -5 0 -15 15 -22 33 -6 17 -18 44 -26 58 -7 14 -11
29 -7 33 3 3 1 6 -5 6 -7 0 -12 6 -12 13 0 20 -155 321 -177 345 -7 7 -13 20
-13 27 0 7 -6 20 -13 27 -20 21 -48 68 -40 68 4 0 0 6 -9 13 -8 6 -24 28 -34
47 -11 19 -27 43 -36 54 -10 11 -18 25 -18 32 0 6 -7 15 -16 18 -9 4 -14 9
-11 12 3 3 -1 13 -10 22 -13 16 -69 90 -118 158 -11 15 -26 33 -32 40 -7 7
-13 16 -13 21 0 4 -9 14 -20 21 -11 7 -20 17 -20 23 0 6 -11 20 -26 31 -14 11
-23 22 -21 24 9 9 -337 361 -359 366 -8 2 -15 8 -16 13 -1 13 -26 30 -57 40
-16 5 -21 4 -17 -4 4 -6 -1 -14 -10 -18 -10 -3 -47 -26 -82 -49 -36 -24 -69
-41 -74 -38 -4 3 -8 1 -8 -4 0 -11 -41 -40 -62 -44 -7 -2 -18 -10 -25 -18 -7
-8 -13 -10 -13 -5 0 6 -3 5 -8 -1 -9 -14 -139 -94 -152 -94 -6 0 -10 -4 -10
-8 0 -10 -132 -88 -142 -84 -5 1 -8 -3 -8 -8 0 -6 -12 -16 -27 -23 -16 -6 -34
-17 -41 -24 -8 -7 -17 -11 -22 -8 -4 3 -10 -2 -14 -10 -3 -8 -12 -15 -21 -15
-8 0 -15 -4 -15 -10 0 -5 -5 -10 -10 -10 -6 0 -29 -12 -52 -27 -29 -19 -43
-24 -46 -15 -2 6 -9 12 -16 12 -7 0 -34 21 -60 48 -25 26 -68 66 -94 89 -26
23 -74 67 -106 98 -33 30 -61 55 -63 55 -3 0 -10 6 -17 13 -7 6 -55 50 -106
97 -52 47 -112 103 -135 125 -51 49 -80 49 -114 0 -13 -19 -27 -35 -32 -35 -4
0 -27 -18 -51 -40 -24 -22 -48 -40 -55 -40 -6 0 -13 -4 -15 -9 -1 -5 -23 -25
-47 -45 l-44 -37 -486 487 c-267 267 -495 490 -507 494 -16 6 -24 3 -35 -13z
m379 -471 c258 -259 335 -342 310 -333 -18 7 -35 14 -38 17 -3 3 -16 6 -30 8
-13 1 -28 8 -32 15 -4 6 -8 9 -8 6 0 -4 -18 -1 -41 5 l-41 12 -52 -50 c-119
-115 -164 -156 -170 -156 -3 0 -28 -24 -56 -52 l-50 -53 -34 38 c-19 20 -37
37 -41 37 -3 0 -19 12 -36 27 -37 34 -57 35 -86 5 -12 -13 -31 -24 -42 -25
-12 -1 -21 -5 -21 -9 0 -4 -6 -8 -13 -8 -8 0 -28 -7 -46 -16 -17 -9 -38 -17
-46 -18 -8 -1 -18 -5 -21 -9 -16 -15 -41 -6 -55 21 -8 15 -22 36 -31 46 -10
11 -18 23 -18 28 0 16 -44 58 -61 58 -10 0 -21 5 -24 10 -3 6 -15 10 -26 10
-10 0 -19 5 -19 12 0 6 -3 9 -6 5 -8 -7 -64 13 -64 24 0 4 -7 6 -15 3 -20 -8
-19 8 3 27 9 9 31 34 49 55 17 21 48 59 69 84 20 25 47 55 60 67 13 12 24 26
24 32 0 5 14 21 30 34 17 14 30 29 30 34 0 4 16 23 35 41 20 17 32 32 28 32
-4 0 2 10 14 23 25 25 38 39 113 128 30 35 65 75 77 89 13 14 23 28 23 32 0 5
3 8 7 8 3 0 161 -155 351 -344z m-1532 -420 c7 -6 31 -27 55 -46 23 -19 53
-45 66 -57 13 -13 28 -23 33 -23 5 0 13 -6 17 -13 4 -7 36 -35 70 -62 35 -28
63 -53 63 -57 0 -5 5 -8 11 -8 7 0 19 -8 28 -18 9 -9 42 -36 74 -60 31 -23 57
-47 57 -52 0 -6 5 -10 11 -10 6 0 29 -16 50 -35 l38 -34 -32 -23 c-18 -12 -35
-26 -38 -31 -4 -5 -11 -7 -17 -3 -6 3 -23 -11 -39 -31 -15 -21 -31 -39 -35
-41 -5 -2 -8 -11 -8 -19 0 -13 -4 -13 -27 3 -29 18 -44 30 -72 54 -67 59 -114
83 -123 63 -4 -10 -74 -43 -90 -43 -6 0 -30 19 -52 42 -23 23 -45 41 -50 40
-4 -2 -14 2 -22 8 -15 13 -37 8 -109 -27 l-50 -24 -58 61 c-32 33 -62 60 -67
60 -6 0 -10 8 -10 18 0 13 -8 17 -35 17 -19 0 -35 -3 -35 -8 0 -4 -12 -7 -27
-6 -16 0 -49 -2 -75 -5 -47 -6 -67 7 -31 21 9 4 24 14 33 22 9 9 34 30 55 47
22 17 77 61 123 98 45 36 82 63 82 59 0 -4 6 1 13 10 6 9 48 46 92 81 83 65
93 68 131 32z m2509 15 c108 -103 145 -138 145 -133 0 2 18 -14 40 -37 22 -22
40 -43 40 -46 0 -3 -18 -2 -40 1 -37 6 -39 5 -46 -22 -4 -16 -22 -43 -39 -61
-30 -30 -34 -31 -58 -18 -14 7 -28 11 -31 8 -2 -3 -11 -1 -18 3 -14 9 -25 12
-71 21 -15 3 -50 27 -78 54 -28 27 -53 49 -56 49 -2 0 -11 6 -18 14 -12 12
-12 16 0 26 8 7 15 9 15 4 0 -5 5 -1 11 8 5 10 38 39 72 65 34 26 71 55 81 65
25 22 26 22 51 -1z"/>
<path d="M7689 5793 c-16 -7 -29 -9 -29 -5 0 4 -4 2 -8 -5 -4 -6 -14 -13 -22
-15 -18 -4 -112 -100 -118 -120 -1 -5 -5 -21 -8 -38 -4 -16 -9 -30 -13 -30 -8
0 -9 -25 -13 -180 l-3 -125 -93 -2 c-52 -1 -95 -3 -97 -5 -5 -5 -7 -30 -6 -68
l1 -35 99 3 98 2 0 -492 0 -493 42 -6 c22 -3 46 -2 52 1 8 5 11 152 12 496 l2
489 140 1 140 2 6 47 c3 25 1 49 -3 51 -5 3 -71 5 -147 5 l-138 0 0 94 c0 52
3 95 6 95 4 0 6 13 3 30 -5 33 17 120 31 120 4 0 6 4 3 8 -3 5 10 24 29 42 19
19 35 30 35 26 0 -5 7 -3 15 4 8 7 21 10 30 7 8 -4 17 -2 20 4 7 11 71 4 113
-12 17 -6 27 -6 31 0 8 12 4 91 -4 99 -18 18 -167 22 -206 5z"/>
<path d="M8553 5792 c-36 -3 -45 -8 -64 -38 -11 -19 -26 -40 -32 -47 -7 -7
-34 -45 -61 -85 -27 -39 -53 -72 -58 -72 -4 0 -8 -6 -8 -13 0 -7 -8 -22 -19
-33 -24 -27 -44 -64 -37 -71 3 -4 25 -6 48 -5 34 1 48 8 66 29 13 16 34 40 47
56 13 15 21 27 18 27 -4 0 54 79 67 90 3 3 21 26 40 53 18 26 37 47 42 47 5 0
7 4 4 9 -3 5 1 14 9 21 32 26 10 37 -62 32z"/>
<path d="M5564 5719 c-3 -5 -67 -19 -101 -21 -5 0 -24 -8 -44 -19 -20 -10 -39
-15 -43 -12 -3 4 -6 1 -6 -5 0 -9 -39 -28 -47 -23 -2 0 -12 -7 -22 -16 -25
-24 -70 -54 -73 -51 -2 2 -23 -19 -48 -46 -25 -27 -57 -62 -72 -78 -15 -16
-27 -32 -28 -36 0 -4 -7 -15 -15 -24 -8 -10 -11 -18 -7 -18 4 0 -2 -7 -12 -15
-11 -8 -17 -15 -13 -15 4 0 2 -10 -5 -22 -6 -13 -13 -27 -15 -33 -2 -10 -30
-89 -40 -115 -3 -8 -7 -26 -9 -40 -2 -14 -6 -38 -9 -55 -7 -42 -8 -273 0 -315
4 -19 8 -46 10 -60 6 -34 11 -52 19 -72 4 -9 9 -22 10 -30 2 -7 13 -34 25 -60
12 -26 21 -51 20 -54 0 -4 6 -11 15 -16 9 -5 16 -13 16 -18 0 -14 26 -43 97
-113 63 -61 178 -135 222 -144 14 -2 29 -7 34 -10 6 -3 38 -12 71 -19 76 -16
372 -10 386 8 3 3 19 8 35 10 17 2 32 6 35 10 3 4 17 10 30 12 14 2 26 5 28 7
1 1 7 2 12 3 17 2 26 23 24 53 -1 15 -3 38 -3 51 -1 20 -4 21 -21 12 -11 -6
-20 -8 -20 -4 0 3 -6 1 -13 -5 -8 -6 -17 -8 -20 -4 -4 3 -7 1 -7 -5 0 -9 -39
-22 -80 -27 -3 0 -12 -4 -19 -9 -20 -13 -306 -16 -345 -4 -17 5 -35 10 -41 12
-34 8 -85 31 -85 39 0 4 -4 6 -9 2 -5 -3 -16 2 -24 10 -9 8 -20 15 -26 15 -5
0 -38 29 -73 64 -73 73 -88 92 -88 104 0 5 -6 15 -14 21 -14 12 -61 131 -72
181 -16 77 -27 260 -16 260 5 0 6 16 4 35 -2 19 -1 43 3 52 4 10 9 36 10 58 2
22 9 41 14 43 6 2 9 8 5 13 -6 11 63 161 79 171 7 4 12 12 12 18 0 5 34 43 76
83 74 72 197 146 219 132 6 -3 10 -2 10 3 0 23 245 37 350 19 56 -9 170 -49
170 -60 0 -8 3 -8 11 0 14 14 18 91 7 114 -7 15 -52 35 -70 31 -5 -1 -8 3 -8
9 0 5 -4 8 -9 5 -5 -3 -33 -1 -62 5 -60 13 -318 19 -325 8z"/>
<path d="M1180 5700 l-23 -6 1 -734 c0 -404 1 -746 1 -761 1 -24 3 -25 53 -21
29 2 55 5 57 8 3 2 4 284 3 626 -2 535 0 664 12 596 1 -7 8 -23 14 -35 7 -13
10 -23 6 -23 -3 0 -1 -6 5 -13 6 -8 8 -17 4 -20 -3 -4 -1 -7 5 -7 10 0 28 -38
24 -52 -1 -5 2 -8 7 -8 5 0 14 -15 21 -32 7 -18 31 -71 53 -117 22 -46 40 -90
40 -97 0 -8 4 -14 8 -14 7 0 33 -60 30 -72 0 -5 3 -8 9 -8 5 0 10 -5 10 -11 0
-5 18 -47 39 -92 126 -263 158 -336 153 -341 -3 -3 0 -6 7 -6 7 0 11 -6 9 -12
-3 -7 1 -19 9 -26 7 -8 11 -18 8 -23 -4 -5 -2 -9 3 -9 10 0 38 -60 34 -72 -1
-5 3 -8 9 -8 6 0 9 -7 5 -15 -3 -8 -2 -15 2 -15 7 0 32 -49 34 -67 2 -15 26
-33 43 -33 19 0 38 18 43 40 2 8 8 18 14 21 5 3 9 9 8 13 -3 14 33 96 43 96 6
0 7 3 4 6 -4 4 2 23 12 43 41 81 86 177 88 191 1 8 7 16 13 18 5 2 8 7 5 12
-3 5 0 14 7 22 7 7 14 20 16 28 2 8 7 16 12 18 5 2 7 9 4 16 -3 8 1 20 9 27 7
8 14 19 15 24 3 22 36 85 44 85 5 0 6 4 3 10 -3 5 8 36 25 67 16 32 30 64 30
71 0 6 5 12 11 12 5 0 8 4 4 9 -3 5 1 15 8 23 7 7 15 18 16 23 16 51 63 155
71 155 4 0 7 6 7 13 0 21 36 97 47 97 5 0 6 3 3 6 -3 4 -1 16 5 28 7 11 13 26
14 31 1 6 7 21 12 35 8 18 9 -3 6 -80 -6 -160 -7 -1150 -1 -1156 7 -7 107 -7
114 0 4 3 7 1417 3 1511 0 8 -55 11 -101 6 -4 -1 -12 -14 -19 -31 -7 -16 -17
-30 -22 -30 -5 0 -7 -4 -3 -9 3 -5 0 -15 -7 -23 -7 -7 -13 -17 -13 -23 0 -17
-38 -95 -47 -95 -4 0 -8 -9 -8 -20 0 -22 -19 -60 -35 -72 -5 -4 -6 -8 -2 -8 4
0 2 -10 -5 -22 -7 -13 -13 -25 -13 -28 -1 -17 -29 -70 -36 -70 -5 0 -8 -3 -7
-7 5 -13 -33 -103 -43 -103 -5 0 -8 -3 -7 -7 4 -14 -13 -53 -22 -53 -5 0 -7
-6 -4 -14 3 -7 -2 -21 -11 -30 -9 -9 -13 -16 -9 -16 4 0 -1 -9 -11 -20 -10
-11 -15 -20 -12 -20 3 0 1 -13 -4 -30 -6 -16 -15 -30 -21 -30 -5 0 -7 -4 -3
-9 3 -5 -1 -16 -9 -24 -8 -8 -12 -17 -9 -21 4 -3 1 -6 -6 -6 -7 0 -10 -4 -7
-9 3 -4 -12 -43 -33 -85 -22 -42 -37 -76 -35 -76 2 0 -11 -30 -30 -67 -19 -38
-37 -78 -41 -90 -3 -13 -11 -23 -17 -23 -6 0 -8 -3 -5 -6 3 -4 1 -16 -5 -28
-7 -11 -13 -30 -15 -41 -2 -10 -7 -22 -11 -25 -4 -3 -8 -16 -10 -29 -4 -38
-20 -43 -26 -9 -1 7 -5 19 -9 26 -5 6 -5 17 -2 22 3 6 2 10 -4 10 -10 0 -27
38 -23 53 1 4 -3 7 -8 7 -6 0 -10 6 -10 13 0 6 -14 38 -30 70 -17 31 -28 62
-25 67 3 6 2 10 -4 10 -9 0 -21 26 -20 44 0 5 -4 12 -10 15 -13 9 -44 81 -34
81 5 0 3 4 -4 8 -16 10 -63 113 -57 124 3 4 1 8 -4 8 -10 0 -38 60 -34 73 1 4
-2 7 -7 7 -5 0 -13 10 -16 23 -4 12 -23 56 -43 97 -19 41 -35 80 -35 87 0 7
-4 13 -8 13 -3 0 -17 26 -30 58 -12 31 -33 76 -46 100 -13 23 -21 47 -18 52 3
6 3 10 -2 10 -9 0 -33 48 -33 67 0 7 -3 13 -8 13 -4 0 -12 12 -19 28 -20 45
-35 87 -31 88 2 0 -3 8 -10 16 -14 18 -66 27 -102 18z"/>
<path d="M2968 5699 c-8 -5 -11 -215 -11 -758 0 -413 3 -754 5 -757 8 -8 106
-9 114 -1 4 4 7 166 7 361 l0 354 426 -2 426 -1 2 -330 c1 -181 2 -343 2 -360
1 -29 2 -30 51 -29 28 1 53 4 56 7 6 6 7 1505 0 1515 -5 8 -96 6 -104 -3 -3
-2 -5 -157 -6 -342 l-1 -338 -426 -2 -426 -3 0 340 c0 187 -2 343 -5 345 -8 8
-98 11 -110 4z"/>
<path d="M6685 5292 c-2 -2 -21 -5 -42 -6 -22 -2 -49 -9 -61 -15 -12 -7 -26
-9 -31 -6 -5 3 -11 0 -13 -5 -2 -6 -13 -12 -26 -13 -12 0 -22 -5 -22 -9 0 -4
-8 -8 -17 -8 -10 0 -33 -13 -51 -28 -30 -25 -33 -32 -33 -85 -1 -32 1 -61 4
-64 3 -3 14 5 24 16 9 12 23 21 30 21 7 0 13 4 13 8 0 8 96 60 120 64 8 2 17
6 21 10 7 11 129 26 164 21 64 -9 105 -24 134 -50 17 -15 31 -33 31 -40 0 -7
3 -13 8 -13 16 0 51 -109 51 -160 -1 -19 0 -39 1 -45 5 -24 -2 -35 -22 -34
-23 1 -82 -7 -128 -16 -14 -3 -43 -7 -65 -10 -22 -2 -76 -11 -120 -20 -44 -9
-87 -17 -95 -18 -8 -1 -17 -5 -20 -9 -3 -4 -15 -9 -25 -11 -47 -9 -112 -51
-150 -96 -11 -13 -28 -32 -37 -42 -10 -10 -16 -19 -13 -19 2 0 -2 -19 -10 -41
-18 -50 -21 -178 -6 -208 7 -11 8 -21 4 -21 -4 0 -3 -4 3 -8 6 -4 18 -20 27
-37 21 -38 63 -85 77 -85 5 0 10 -4 10 -10 0 -5 7 -10 15 -10 8 0 15 -5 15
-12 0 -6 3 -9 6 -5 3 3 17 2 30 -3 75 -29 193 -28 272 2 31 12 59 22 62 23 24
2 150 122 150 143 0 4 6 16 13 27 12 16 14 5 14 -79 0 -53 3 -100 7 -103 8 -8
85 -8 93 0 8 9 7 764 -2 812 -14 79 -49 156 -90 195 -70 68 -83 78 -89 73 -3
-3 -13 0 -21 7 -14 11 -201 31 -210 22z m312 -594 c1 -29 -1 -57 -4 -62 -3 -4
-7 -33 -9 -63 -2 -30 -7 -60 -13 -66 -5 -7 -9 -16 -9 -20 0 -17 -25 -67 -34
-67 -5 0 -7 -4 -3 -9 6 -11 -94 -115 -103 -107 -3 3 -10 -1 -16 -10 -6 -8 -18
-16 -26 -17 -8 -2 -21 -6 -29 -11 -41 -26 -241 -13 -241 16 0 5 -4 7 -8 4 -10
-6 -63 48 -81 83 -17 31 -25 161 -10 161 5 0 8 4 5 9 -9 14 19 60 58 96 42 38
136 68 251 80 22 2 67 9 99 15 32 6 67 9 77 7 11 -3 19 -1 19 5 0 6 6 8 13 5
6 -2 21 -1 32 3 29 11 32 6 32 -52z"/>
<path d="M8330 5289 c0 -6 -44 -17 -77 -21 -5 0 -27 -14 -50 -30 -24 -16 -43
-27 -43 -25 0 3 -25 -20 -55 -50 -30 -30 -55 -59 -55 -63 0 -5 -7 -13 -16 -18
-9 -5 -15 -12 -14 -16 4 -13 -22 -66 -32 -66 -5 0 -7 -4 -4 -9 3 -4 -1 -16 -8
-27 -8 -10 -12 -24 -9 -30 2 -7 -1 -15 -6 -19 -6 -3 -9 -11 -6 -16 4 -5 3 -15
-1 -21 -11 -17 -13 -37 -14 -153 -1 -98 1 -120 15 -180 4 -16 8 -40 9 -52 0
-13 4 -23 9 -23 4 0 7 -6 7 -12 0 -21 54 -122 73 -136 9 -7 17 -17 17 -23 0
-10 36 -49 46 -49 3 0 23 -13 43 -29 20 -16 55 -34 79 -41 23 -7 42 -17 42
-21 0 -5 7 -6 15 -3 8 4 23 3 33 -1 36 -16 176 -8 250 14 17 5 32 8 32 5 0 -2
11 3 25 12 14 9 25 13 25 10 0 -4 10 0 23 9 13 8 27 12 30 8 4 -3 7 -2 7 4 0
5 15 18 34 28 30 17 35 24 38 65 3 54 -1 87 -11 74 -17 -24 -115 -80 -130 -74
-2 1 -7 -3 -11 -10 -4 -6 -13 -12 -21 -13 -8 -2 -20 -6 -26 -10 -7 -5 -13 -5
-13 -1 0 3 -7 1 -15 -6 -8 -7 -21 -10 -30 -7 -8 4 -17 2 -20 -4 -9 -13 -198
-4 -203 10 -2 6 -8 9 -12 6 -22 -14 -180 112 -163 129 4 3 2 6 -4 6 -14 0 -67
125 -59 139 4 6 2 11 -3 11 -6 0 -11 10 -11 23 1 12 -1 45 -4 74 l-4 52 326 0
c180 0 359 0 399 0 l71 1 4 76 c2 42 0 78 -5 81 -4 2 -7 16 -6 31 0 15 -4 44
-9 64 -5 20 -7 39 -4 42 3 4 1 6 -4 6 -6 0 -16 17 -24 38 -26 73 -117 183
-162 198 -10 3 -16 8 -14 12 2 4 -7 8 -21 9 -14 0 -28 5 -32 10 -3 4 -19 10
-36 12 -54 6 -205 6 -205 0z m160 -104 c8 -2 17 -4 20 -5 3 -1 10 -3 15 -4 50
-10 145 -88 145 -120 0 -7 7 -19 15 -26 8 -6 14 -15 13 -18 -1 -4 4 -18 11
-31 7 -12 11 -31 8 -42 -3 -10 -1 -19 3 -21 5 -2 11 -26 14 -54 l5 -52 -340 0
-340 -1 6 47 c3 26 10 49 16 50 5 2 7 8 4 13 -3 4 6 33 19 64 29 62 139 180
161 171 8 -3 15 0 17 5 2 6 10 11 18 13 8 2 22 6 30 9 35 14 102 15 160 2z"/>
<path d="M853 3862 c-13 -9 -18 -32 -10 -52 7 -19 28 -88 31 -103 2 -7 8 -25
15 -40 6 -16 9 -33 5 -38 -3 -5 -1 -9 4 -9 6 0 13 -12 18 -27 9 -34 9 -34 19
-58 4 -11 17 -42 27 -70 23 -59 41 -100 76 -175 14 -30 25 -61 25 -67 0 -7 5
-13 10 -13 6 0 8 -3 4 -6 -3 -4 1 -13 9 -21 8 -8 12 -19 9 -24 -4 -5 -2 -9 3
-9 10 0 36 -53 32 -66 -1 -4 2 -10 7 -13 5 -3 29 -44 54 -91 24 -46 49 -89 54
-95 6 -7 19 -29 30 -50 11 -22 28 -48 38 -59 9 -11 17 -25 17 -32 0 -6 7 -17
15 -24 8 -7 12 -16 9 -21 -3 -5 -1 -9 5 -9 8 0 29 -29 83 -115 7 -11 15 -22
18 -25 19 -19 70 -91 70 -99 0 -5 4 -11 8 -13 4 -1 23 -23 42 -47 19 -25 42
-52 50 -62 8 -9 26 -30 40 -47 90 -106 130 -149 257 -275 78 -78 166 -162 194
-187 29 -25 63 -55 76 -68 13 -12 28 -22 33 -22 6 0 15 -9 22 -20 7 -11 17
-20 21 -20 5 0 14 -6 22 -12 20 -20 47 -41 85 -68 19 -13 37 -27 40 -30 3 -3
29 -21 57 -40 29 -19 53 -38 53 -42 0 -5 6 -8 13 -8 7 0 23 -9 35 -20 12 -11
25 -20 30 -20 4 0 17 -8 28 -18 10 -9 30 -23 44 -30 14 -7 39 -21 55 -32 17
-10 45 -27 63 -36 17 -9 32 -21 32 -26 0 -5 4 -7 9 -4 5 3 19 -2 32 -12 13 -9
56 -33 94 -52 39 -19 73 -38 76 -43 3 -5 9 -8 13 -7 4 0 40 -15 80 -34 41 -20
79 -36 85 -36 6 0 11 -4 11 -8 0 -5 6 -9 13 -9 6 0 37 -11 67 -25 30 -14 72
-31 93 -39 20 -7 37 -17 37 -22 0 -4 4 -6 9 -3 8 6 51 -7 116 -35 36 -15 33
-14 70 -23 17 -4 37 -10 45 -13 8 -3 24 -8 35 -10 10 -2 22 -7 25 -11 3 -4 10
-7 15 -7 29 -1 95 -18 95 -24 0 -4 8 -7 18 -8 21 -1 72 -12 91 -19 8 -2 30 -7
50 -10 20 -3 40 -9 46 -12 5 -3 25 -7 45 -9 19 -2 42 -6 50 -10 8 -3 23 -5 33
-4 9 1 17 -1 17 -6 0 -4 15 -8 33 -9 17 0 50 -4 72 -7 22 -3 63 -9 90 -13 59
-9 67 -10 80 -13 6 -2 27 -2 47 -1 21 1 43 -2 49 -5 6 -4 50 -9 97 -11 135 -7
598 -8 608 -2 9 5 54 8 171 11 29 1 53 5 53 9 0 4 12 6 28 6 15 0 72 7 127 16
130 22 142 24 163 30 22 6 91 18 117 20 11 0 22 3 25 7 4 4 85 25 170 43 8 2
23 7 32 11 10 4 29 8 43 9 14 0 25 5 25 10 0 4 6 6 14 3 8 -3 16 -2 18 3 2 5
16 11 33 14 31 6 67 18 123 43 18 8 36 12 41 8 5 -3 11 0 13 6 2 6 16 11 31
11 15 0 27 4 27 7 0 8 171 77 183 73 4 -1 7 3 7 8 0 6 5 10 10 10 6 0 52 20
102 44 51 25 95 43 100 40 4 -3 8 -1 8 4 0 6 23 22 50 36 28 14 50 24 50 20 0
-3 7 2 16 10 8 9 22 16 30 16 8 0 14 4 14 8 0 8 67 44 73 39 1 -1 13 8 26 20
13 12 28 20 33 17 4 -3 8 -1 8 4 0 9 50 37 63 34 4 -1 7 2 7 7 0 10 80 64 80
54 0 -5 5 0 11 9 5 10 17 18 24 18 8 0 15 5 15 10 0 6 5 10 11 10 5 0 41 25
78 54 38 30 71 52 75 49 3 -4 6 -2 6 3 0 6 24 28 53 49 28 22 70 57 92 77 22
21 43 38 47 38 18 0 478 460 478 479 0 3 24 32 54 64 29 31 51 57 47 57 -3 1
5 10 18 20 13 11 19 20 15 20 -5 0 -2 6 6 13 8 7 20 20 25 28 40 63 89 129 96
129 5 0 9 4 9 9 0 11 81 137 104 164 9 9 13 17 9 17 -3 0 0 8 8 18 8 9 24 34
34 55 11 20 23 37 27 37 5 0 8 7 8 15 0 8 5 15 11 15 5 0 8 4 5 9 -3 5 3 20
14 34 11 14 20 30 20 36 0 6 5 11 11 11 5 0 8 4 4 9 -3 5 2 17 11 25 8 9 13
16 9 16 -8 0 26 64 39 72 6 4 8 8 3 8 -4 0 6 26 22 58 34 67 66 138 75 170 4
12 12 22 17 22 5 0 9 11 9 24 0 14 5 28 10 31 6 3 10 15 10 26 0 10 5 19 11
19 5 0 8 4 5 8 -3 5 1 21 9 35 8 15 14 30 14 32 2 20 15 55 21 55 4 0 7 6 7
13 -2 23 25 107 35 107 5 0 6 4 3 10 -3 5 -2 17 3 26 10 18 -6 63 -23 65 -5 0
-1092 2 -2415 3 -2114 3 -5447 12 -5475 15 -5 1 -34 -2 -63 -5 -29 -3 -60 -3
-70 1 -25 9 -205 16 -219 7z m3147 -428 c25 -8 52 -18 60 -21 8 -3 18 -7 22
-7 3 -1 10 -4 14 -8 4 -5 17 -8 30 -8 27 0 75 -39 57 -46 -7 -3 -13 -10 -13
-16 0 -6 -12 -22 -26 -35 -31 -28 -36 -20 93 -147 51 -50 93 -94 93 -98 0 -3
80 -85 177 -182 97 -97 174 -176 171 -176 -5 0 308 -316 337 -340 10 -9 114
90 459 436 l447 446 -23 22 c-34 33 -59 66 -50 66 4 0 1 4 -6 8 -25 16 0 46
34 41 4 0 10 4 14 11 4 6 18 12 31 14 13 2 31 6 39 9 42 16 123 28 145 23 18
-5 25 -13 25 -30 0 -12 -3 -25 -6 -28 -3 -4 -7 -33 -9 -65 -1 -32 -7 -69 -13
-83 -10 -26 -12 -34 -12 -49 0 -17 -31 -41 -53 -41 -12 0 -33 13 -46 28 l-24
27 -446 -448 c-245 -246 -447 -449 -449 -451 -1 -2 69 -75 158 -163 88 -88
160 -162 160 -165 0 -3 84 -89 186 -192 l187 -187 61 -1 c34 -1 69 2 79 7 9 4
33 5 52 3 19 -2 35 -1 35 2 0 3 31 6 69 6 69 -1 69 -1 75 -30 3 -16 4 -32 0
-35 -3 -3 -33 -7 -67 -9 -34 -2 -89 -5 -122 -7 -33 -2 -72 -4 -87 -4 -16 -1
-28 -5 -28 -9 0 -16 72 -83 88 -82 114 9 282 8 288 -2 4 -7 3 -13 -3 -15 -5
-2 -8 -14 -6 -27 l5 -24 -112 -1 c-62 0 -115 -3 -118 -6 -3 -3 9 -17 26 -32
18 -14 32 -32 32 -39 0 -19 25 -23 115 -19 100 4 133 -2 141 -27 7 -22 -15
-53 -28 -40 -5 5 -35 5 -71 0 -34 -5 -73 -7 -85 -5 -18 4 -28 -3 -42 -26 -11
-17 -16 -35 -12 -41 8 -13 10 -29 15 -114 4 -60 -4 -85 -19 -61 -5 8 -9 8 -14
-1 -4 -7 -15 -10 -24 -7 -12 5 -16 21 -17 59 -3 97 -5 124 -12 136 -4 6 -7 33
-6 61 2 43 -1 52 -27 74 -25 22 -30 23 -35 9 -4 -9 -3 -19 0 -22 4 -3 7 -33 7
-68 -1 -34 2 -62 5 -62 8 0 17 -80 12 -96 -7 -19 -62 -23 -67 -5 -12 41 -18
87 -21 149 -2 37 -8 100 -14 140 -6 41 -9 77 -6 81 5 9 -31 51 -44 51 -8 0 -7
-25 6 -191 3 -50 1 -66 -9 -66 -7 0 -22 -3 -33 -6 -17 -6 -21 -3 -22 15 -1 13
-6 49 -11 80 -4 31 -8 91 -8 133 1 41 -1 75 -4 75 -3 0 -7 14 -8 32 -3 42 -24
68 -186 229 -75 75 -136 139 -136 142 0 2 -79 83 -175 179 l-174 175 -331
-331 c-182 -182 -335 -338 -340 -346 -5 -8 -6 -19 -2 -24 6 -10 7 -23 16 -126
3 -30 6 -55 7 -55 1 0 2 -13 4 -30 1 -16 6 -52 9 -79 6 -41 5 -48 -9 -43 -8 4
-15 3 -15 -1 0 -13 -37 -11 -38 1 0 7 -3 32 -6 57 -3 25 -8 72 -11 105 -4 33
-8 74 -10 90 -2 17 -4 35 -4 42 -1 6 -23 -12 -50 -40 -44 -46 -48 -53 -39 -79
5 -15 11 -78 11 -140 l2 -112 -33 -3 -32 -4 1 68 c0 37 0 73 -2 78 -6 25 -7
32 -8 62 l-1 32 -52 -56 c-29 -31 -51 -61 -49 -67 8 -20 17 -151 12 -156 -3
-3 -6 -14 -6 -25 0 -14 -8 -21 -26 -23 -26 -3 -27 -1 -27 45 -1 119 -35 204
-74 182 -8 -5 -43 -10 -77 -12 -34 -2 -64 -7 -68 -11 -14 -14 -43 -5 -43 13 0
11 -3 27 -6 36 -4 9 -3 15 2 14 5 -1 25 1 44 5 20 4 56 9 80 11 25 1 53 6 63
10 9 4 26 5 37 2 11 -3 20 -1 20 5 0 6 11 8 25 5 20 -3 34 4 61 30 35 34 39
62 5 44 -10 -6 -26 -10 -37 -10 -10 1 -37 -2 -59 -6 -22 -3 -53 -8 -70 -10
-16 -2 -45 -7 -64 -11 -29 -6 -33 -5 -28 9 3 9 2 19 -3 22 -17 10 -11 34 8 33
9 0 42 5 74 11 31 7 60 11 65 10 4 -1 24 1 43 4 48 9 86 16 143 23 33 5 57 15
74 32 24 24 25 26 7 33 -10 3 -27 3 -36 -2 -9 -5 -27 -8 -40 -8 -13 1 -54 -4
-92 -10 -38 -7 -73 -8 -77 -4 -4 4 -11 21 -15 36 -6 26 -4 29 17 27 13 -1 26
-1 29 0 3 2 19 4 35 5 17 1 46 5 65 9 19 3 53 8 75 11 22 3 64 8 94 11 l53 7
324 324 c178 179 324 328 324 332 0 4 -72 81 -161 172 -89 90 -240 245 -336
344 -96 99 -225 231 -286 293 l-112 114 -32 -36 c-18 -20 -33 -33 -33 -30 0 4
-6 1 -14 -5 -11 -9 -18 -6 -34 16 -42 60 -53 294 -13 293 3 0 26 -7 51 -16z
m980 -213 c0 -3 52 -5 115 -4 103 2 116 0 125 -17 7 -14 6 -22 -5 -33 -8 -8
-12 -17 -9 -19 2 -3 -8 -18 -23 -34 -15 -16 -26 -30 -25 -31 5 -7 -61 -103
-69 -103 -6 0 -8 -4 -5 -8 3 -5 -8 -23 -24 -40 -16 -18 -26 -32 -23 -32 3 0 0
-7 -7 -15 -11 -13 -16 -13 -42 1 -16 9 -27 18 -24 21 3 3 -2 12 -10 20 -24 25
-75 103 -67 103 4 0 0 5 -10 11 -9 6 -15 14 -12 19 3 4 -2 11 -11 14 -8 3 -12
10 -9 16 3 5 2 10 -3 10 -6 0 -22 21 -37 46 l-28 47 24 18 c19 14 41 18 102
17 42 -1 77 -4 77 -7z m110 -1633 c0 -5 11 -21 24 -35 14 -15 23 -30 21 -34
-3 -4 2 -9 10 -13 8 -3 15 -12 15 -20 0 -7 7 -17 16 -20 8 -3 12 -10 9 -16 -3
-6 1 -13 9 -16 9 -3 16 -12 16 -19 0 -7 6 -15 13 -18 6 -2 22 -22 33 -45 36
-66 28 -69 -242 -69 -126 -1 -237 3 -246 8 -21 11 -23 25 -5 43 6 8 19 24 27
36 8 13 23 32 33 42 9 10 17 23 17 28 0 6 7 13 15 16 8 4 15 12 15 20 0 7 10
20 22 28 12 9 19 16 15 16 -8 0 2 14 36 51 9 10 17 22 17 26 0 3 14 19 31 34
l31 28 34 -31 c19 -17 34 -35 34 -40z"/>
</g>
</svg>
